<?xml version="1.0" encoding="utf-8"?>
<!-- Generator: Adobe Illustrator 23.0.2, SVG Export Plug-In . SVG Version: 6.00 Build 0)  -->
<svg version="1.1" id="Layer_1" xmlns="http://www.w3.org/2000/svg" xmlns:xlink="http://www.w3.org/1999/xlink" x="0px" y="0px"
	 viewBox="0 0 20 20" style="enable-background:new 0 0 20 20;" xml:space="preserve">
<style type="text/css">
	.st0{fill:#FF304F;}
</style>
<title>arrow-right</title>
<desc>Created with Sketch.</desc>
<g id="Symbols">
	<g id="arrow-right">
		<g id="icon-_x2F_-expand" transform="translate(12.000000, 12.000000) rotate(-90.000000) translate(-12.000000, -12.000000) ">
			<path id="Fill-2" class="st0" d="M22.8,5.5l-0.3-0.3c-0.3-0.3-0.8-0.3-1.2,0l-0.1,0.1L14,12.6L6.8,5.4L6.7,5.2
				c-0.3-0.3-0.8-0.3-1.2,0L5.2,5.5c-0.3,0.3-0.3,0.8,0,1.2l0.1,0.1l7.9,7.9c0.3,0.2,0.5,0.3,0.8,0.3s0.5-0.1,0.7-0.3l7.9-7.9l0,0
				l0.1-0.1C23.1,6.3,23.1,5.8,22.8,5.5"/>
		</g>
	</g>
</g>
</svg>
